<svg id="Capa_1" data-name="Capa 1" xmlns="http://www.w3.org/2000/svg" viewBox="0 0 1708 258.58"><defs><style>.cls-1{fill:#333;}.cls-2{fill:#42b2c1;}.cls-2,.cls-3{fill-rule:evenodd;}.cls-3{fill:#2f5daf;}</style></defs><path d="M870.7,15.59h59.18c26.88,0,48.14,19.17,48.14,45.22,0,24-19.17,45.22-47.93,45.22H886.33v55.43H870.7Zm15.63,13.55V92.49h39.59c24.8,0,36.47-13.13,36.47-31.68,0-20.21-13.55-31.67-36.47-31.67Z" transform="translate(-12 -12.29)"/><path d="M1027,161.46h-15.63V15.59H1027Z" transform="translate(-12 -12.29)"/><path d="M1165.36,147.92v13.54h-94.61V15.59h15.63V147.92Z" transform="translate(-12 -12.29)"/><path d="M1291.23,147.92v13.54h-94.61V15.59h15.63V147.92Z" transform="translate(-12 -12.29)"/><path d="M1322.07,130.41C1326.45,134,1345.2,150,1377.5,150c25.63,0,41-11.67,41-29.38,0-41.26-105.23-15.63-105.23-69.6,0-20.22,16.88-37.51,55.85-37.51,31,0,48.13,10.42,56.68,16.46l-7.71,11.46c-6.26-4.58-21.26-14.38-49-14.38-31.68,0-40.43,11.46-40.43,23.34.21,39.59,105.65,13.34,105.65,70.23,0,25-22.3,42.92-56.68,42.92-40.43,0-59.39-17.71-64.39-21.88Z" transform="translate(-12 -12.29)"/><path class="cls-1" d="M84.66,164.77q-17.28,0-30.75-6.11a68.64,68.64,0,0,1-22.85-16.43,69.7,69.7,0,0,1-14.22-24.11A87.31,87.31,0,0,1,12,89v-.42A82.27,82.27,0,0,1,17.05,60,74.18,74.18,0,0,1,31.58,35.67a72.33,72.33,0,0,1,23-17,69.49,69.49,0,0,1,30.33-6.43,86.38,86.38,0,0,1,15.37,1.27,68.35,68.35,0,0,1,13.06,3.69A72.21,72.21,0,0,1,125,23.14,93.91,93.91,0,0,1,136,31.25l-2.95,3.58a94.56,94.56,0,0,0-21.48-13.37q-11.16-5-26.95-5a63.33,63.33,0,0,0-28.12,6.11A68.11,68.11,0,0,0,35.16,38.73a72.67,72.67,0,0,0-13.68,23,75.46,75.46,0,0,0-4.85,26.64v.42a81.21,81.21,0,0,0,4.63,27.38,69.12,69.12,0,0,0,13.38,22.95A63.1,63.1,0,0,0,56,154.77q12.65,5.79,28.86,5.79a70.7,70.7,0,0,0,15.68-1.69,80.37,80.37,0,0,0,14.12-4.53A87.69,87.69,0,0,0,127,147.92a83.51,83.51,0,0,0,10.31-7.58V93H83V88.32h59V142a98.36,98.36,0,0,1-25,16.12A76.51,76.51,0,0,1,84.66,164.77Z" transform="translate(-12 -12.29)"/><path class="cls-1" d="M182.59,14.82h60.23q28.43,0,42.33,13.9,10.53,10.53,10.53,27.38v.42A36.82,36.82,0,0,1,282.2,85.79,47.57,47.57,0,0,1,267,94.11a72.82,72.82,0,0,1-19.59,3.69l49.07,64.44h-5.69L242,98H187.22v64.23h-4.63Zm57.91,79A78.23,78.23,0,0,0,262.82,91a46.36,46.36,0,0,0,15.8-7.9A31.84,31.84,0,0,0,288,71.26a34.85,34.85,0,0,0,3.06-14.53v-.42q0-17.69-12.85-27.49T242.4,19H187.22V93.8Z" transform="translate(-12 -12.29)"/><path class="cls-1" d="M392.35,164.56a66.65,66.65,0,0,1-24.22-4.22,49.91,49.91,0,0,1-18.85-12.63,57.32,57.32,0,0,1-12.22-21.06Q332.74,114,332.75,97V14.82h4.63V97q0,15.8,4,27.69a54.26,54.26,0,0,0,11.27,19.8,46.44,46.44,0,0,0,17.47,11.9,61,61,0,0,0,22.44,4,62.15,62.15,0,0,0,22.53-3.89,44.76,44.76,0,0,0,17.27-11.79,54,54,0,0,0,11.05-19.8q3.9-11.89,3.9-27.69V14.82H452V97q0,16.85-4.32,29.58a58.18,58.18,0,0,1-12.11,21.17,49,49,0,0,1-18.85,12.63A67.54,67.54,0,0,1,392.35,164.56Z" transform="translate(-12 -12.29)"/><path class="cls-1" d="M493.22,14.82H545q27.16,0,41.91,11.69t14.74,32.54v.42q0,21.48-15.37,33.17t-42.12,11.69H497.85v57.91h-4.63Zm51,85.3q24.63,0,38.74-10.33t14.12-30.11v-.42q0-19-13.8-29.59T544.61,19H497.85v81.08Z" transform="translate(-12 -12.29)"/><path class="cls-1" d="M700.87,164.77a71.61,71.61,0,0,1-30.32-6.21,70.79,70.79,0,0,1-23.07-16.75,74.46,74.46,0,0,1-14.73-24.22,80.86,80.86,0,0,1-5.17-28.85v-.42a80.9,80.9,0,0,1,5.17-28.85,74.67,74.67,0,0,1,14.73-24.22,70.42,70.42,0,0,1,53.39-23,71.91,71.91,0,0,1,30.23,6.22,70.65,70.65,0,0,1,23.16,16.74A74.86,74.86,0,0,1,769,59.47a81.11,81.11,0,0,1,5.16,28.85v.42A81.07,81.07,0,0,1,769,117.59a74.65,74.65,0,0,1-14.74,24.22,70.54,70.54,0,0,1-23.16,16.75A71.9,71.9,0,0,1,700.87,164.77Zm.21-4.21a65.51,65.51,0,0,0,28-5.9,67.91,67.91,0,0,0,35.59-38.43A77.47,77.47,0,0,0,769.53,89v-.42a76,76,0,0,0-4.95-27.16,70.93,70.93,0,0,0-14-23,69.24,69.24,0,0,0-21.8-15.9,69.35,69.35,0,0,0-56.23-.11A69.4,69.4,0,0,0,651,38.09a68.23,68.23,0,0,0-13.9,22.85,77.53,77.53,0,0,0-4.84,27.17v.42a76,76,0,0,0,4.95,27.17,70.75,70.75,0,0,0,14,23,69.17,69.17,0,0,0,21.8,15.9A65.12,65.12,0,0,0,701.08,160.56Z" transform="translate(-12 -12.29)"/><path class="cls-1" d="M688.53,105.54l-4.3,29.31,21.68-8.95,21,8.95-4.3-30.24a27.56,27.56,0,0,1-34.06.93Z" transform="translate(-12 -12.29)"/><path class="cls-1" d="M732.6,79a27.67,27.67,0,1,0-10,21.28A27.65,27.65,0,0,0,732.6,79Z" transform="translate(-12 -12.29)"/><path d="M138.23,229.66h13a23.55,23.55,0,0,1,8.71,1.56,20.9,20.9,0,0,1,6.83,4.28,19,19,0,0,1,4.43,6.4,20.15,20.15,0,0,1,1.56,8V250a20.13,20.13,0,0,1-1.56,8,18.91,18.91,0,0,1-4.43,6.4,20.9,20.9,0,0,1-6.83,4.28,23.35,23.35,0,0,1-8.71,1.56h-13ZM151.31,269a22,22,0,0,0,8.19-1.48,19.21,19.21,0,0,0,6.4-4.05A18.51,18.51,0,0,0,171.51,250v-.11a18.79,18.79,0,0,0-1.48-7.47,18.35,18.35,0,0,0-4.16-6.08,19.3,19.3,0,0,0-6.43-4.08,22.35,22.35,0,0,0-8.25-1.48H139.5V269Z" transform="translate(-12 -12.29)"/><path d="M194.61,229.66h28.3v1.15h-27v18.41h24.54v1.16H195.88V269H223.2v1.15H194.61Z" transform="translate(-12 -12.29)"/><path d="M257.87,270.75a22.38,22.38,0,0,1-8.71-1.67,24.19,24.19,0,0,1-7.32-4.81l.92-.93a23,23,0,0,0,7,4.64A21,21,0,0,0,258,269.6a17.28,17.28,0,0,0,5.15-.72,12.53,12.53,0,0,0,3.93-2,9,9,0,0,0,2.5-3,8.59,8.59,0,0,0,.86-3.79v-.12a8.41,8.41,0,0,0-.63-3.33,6.71,6.71,0,0,0-2.15-2.63,14.32,14.32,0,0,0-4.08-2.06,55.09,55.09,0,0,0-6.39-1.71,44.37,44.37,0,0,1-6.4-1.7,15.81,15.81,0,0,1-4.28-2.23,7.87,7.87,0,0,1-2.41-2.92,9.14,9.14,0,0,1-.75-3.8v-.11a8.55,8.55,0,0,1,1-4,10.23,10.23,0,0,1,2.75-3.29,13.19,13.19,0,0,1,4.17-2.23,16.4,16.4,0,0,1,5.29-.81,22.17,22.17,0,0,1,7.49,1.24,22.45,22.45,0,0,1,6.28,3.39l-.8,1a24.63,24.63,0,0,0-6-3.27,19.91,19.91,0,0,0-7.07-1.24,14.74,14.74,0,0,0-4.83.75,12.21,12.21,0,0,0-3.73,2,8.87,8.87,0,0,0-2.4,2.93,7.35,7.35,0,0,0-.84,3.44v.11a8.25,8.25,0,0,0,.63,3.31,6.45,6.45,0,0,0,2.17,2.57,16.23,16.23,0,0,0,4,2,44.09,44.09,0,0,0,6.25,1.65,44,44,0,0,1,6.62,1.82,16.74,16.74,0,0,1,4.35,2.31,7.54,7.54,0,0,1,2.34,3,9.4,9.4,0,0,1,.7,3.73V260a9.57,9.57,0,0,1-1,4.23,9.88,9.88,0,0,1-2.75,3.41,13.6,13.6,0,0,1-4.37,2.29A18.85,18.85,0,0,1,257.87,270.75Z" transform="translate(-12 -12.29)"/><path d="M308.81,229.37h1.1l19.5,40.8H328L322.24,258H296.42l-5.79,12.15H289.3Zm12.85,27.49L309.33,231,297,256.86Z" transform="translate(-12 -12.29)"/><path d="M349.15,229.66h16.56q7.82,0,11.63,3.82a10.17,10.17,0,0,1,2.9,7.52v.12a10.15,10.15,0,0,1-3.71,8,13.09,13.09,0,0,1-4.17,2.29,19.78,19.78,0,0,1-5.38,1l13.49,17.71H378.9l-13.42-17.65H350.43v17.65h-1.28Zm15.92,21.7a21.17,21.17,0,0,0,6.14-.78,12.71,12.71,0,0,0,4.34-2.17,8.72,8.72,0,0,0,2.57-3.24,9.55,9.55,0,0,0,.84-4v-.12a9,9,0,0,0-3.53-7.56q-3.53-2.69-9.84-2.69H350.43v20.55Z" transform="translate(-12 -12.29)"/><path d="M402.64,229.66h16.55q7.81,0,11.64,3.82a10.16,10.16,0,0,1,2.89,7.52v.12a10.1,10.1,0,0,1-3.7,8,13.09,13.09,0,0,1-4.17,2.29,19.85,19.85,0,0,1-5.38,1L434,270.17h-1.57L419,252.52h-15v17.65h-1.28Zm15.92,21.7a21.09,21.09,0,0,0,6.13-.78,12.53,12.53,0,0,0,4.34-2.17,8.75,8.75,0,0,0,2.58-3.24,9.55,9.55,0,0,0,.84-4v-.12a9,9,0,0,0-3.53-7.56q-3.54-2.69-9.84-2.69H403.92v20.55Z" transform="translate(-12 -12.29)"/><path d="M474.47,270.87a19.36,19.36,0,0,1-14.67-6.31,20.4,20.4,0,0,1-4.05-6.66,22.18,22.18,0,0,1-1.42-7.92v-.12a22.2,22.2,0,0,1,1.42-7.93,20.4,20.4,0,0,1,4.05-6.66,20,20,0,0,1,29.35,0,20.75,20.75,0,0,1,4.05,6.66,22.2,22.2,0,0,1,1.42,7.93V250a22.18,22.18,0,0,1-1.42,7.92,20.75,20.75,0,0,1-4.05,6.66,19.47,19.47,0,0,1-6.37,4.6A19.73,19.73,0,0,1,474.47,270.87Zm.06-1.16a18,18,0,0,0,7.7-1.62A18.65,18.65,0,0,0,492,257.53a21.23,21.23,0,0,0,1.33-7.5v-.11a21,21,0,0,0-1.35-7.47,19.81,19.81,0,0,0-3.86-6.31,18.88,18.88,0,0,0-6-4.37,19.07,19.07,0,0,0-15.45,0,18.91,18.91,0,0,0-5.93,4.31,18.69,18.69,0,0,0-3.82,6.28,21.31,21.31,0,0,0-1.33,7.47v.12a21.1,21.1,0,0,0,1.35,7.47,19.56,19.56,0,0,0,3.85,6.3,18.88,18.88,0,0,0,6,4.37A17.84,17.84,0,0,0,474.53,269.71Z" transform="translate(-12 -12.29)"/><path d="M516.44,229.66h1.28V269H542.6v1.15H516.44Z" transform="translate(-12 -12.29)"/><path d="M561.82,229.66h1.27V269H588v1.15H561.82Z" transform="translate(-12 -12.29)"/><path d="M625.55,270.87a19.36,19.36,0,0,1-14.67-6.31,20.6,20.6,0,0,1-4.06-6.66,22.4,22.4,0,0,1-1.41-7.92v-.12a22.41,22.41,0,0,1,1.41-7.93,20.6,20.6,0,0,1,4.06-6.66A19.36,19.36,0,0,1,625.55,229a19.73,19.73,0,0,1,8.31,1.71,19.47,19.47,0,0,1,6.37,4.6,20.55,20.55,0,0,1,4,6.66,22.2,22.2,0,0,1,1.42,7.93V250a22.18,22.18,0,0,1-1.42,7.92,20.55,20.55,0,0,1-4,6.66,19.47,19.47,0,0,1-6.37,4.6A19.73,19.73,0,0,1,625.55,270.87Zm.06-1.16a18,18,0,0,0,7.7-1.62,18.65,18.65,0,0,0,9.78-10.56,21.46,21.46,0,0,0,1.33-7.5v-.11a20.81,20.81,0,0,0-1.36-7.47,19.61,19.61,0,0,0-3.85-6.31,19,19,0,0,0-6-4.37,19.09,19.09,0,0,0-15.46,0,19.14,19.14,0,0,0-5.93,4.31,18.85,18.85,0,0,0-3.82,6.28,21.31,21.31,0,0,0-1.33,7.47v.12a20.89,20.89,0,0,0,1.36,7.47,19.56,19.56,0,0,0,3.85,6.3,18.83,18.83,0,0,0,6,4.37A17.89,17.89,0,0,0,625.61,269.71Z" transform="translate(-12 -12.29)"/><path d="M680.94,270.75a22.29,22.29,0,0,1-8.7-1.67,24.11,24.11,0,0,1-7.33-4.81l.93-.93a22.87,22.87,0,0,0,6.95,4.64,20.93,20.93,0,0,0,8.27,1.62,17.28,17.28,0,0,0,5.15-.72,12.47,12.47,0,0,0,3.94-2,8.84,8.84,0,0,0,2.49-3,8.47,8.47,0,0,0,.87-3.79v-.12a8.24,8.24,0,0,0-.64-3.33,6.76,6.76,0,0,0-2.14-2.63,14.6,14.6,0,0,0-4.08-2.06,55.32,55.32,0,0,0-6.4-1.71,43.86,43.86,0,0,1-6.39-1.7,15.88,15.88,0,0,1-4.29-2.23,7.84,7.84,0,0,1-2.4-2.92,9.14,9.14,0,0,1-.75-3.8v-.11a8.66,8.66,0,0,1,1-4,10.36,10.36,0,0,1,2.75-3.29,13.3,13.3,0,0,1,4.17-2.23,16.49,16.49,0,0,1,5.29-.81,22.27,22.27,0,0,1,7.5,1.24,22.59,22.59,0,0,1,6.28,3.39l-.81,1a24.63,24.63,0,0,0-6-3.27,19.82,19.82,0,0,0-7.06-1.24,14.81,14.81,0,0,0-4.84.75,12.33,12.33,0,0,0-3.73,2,9.12,9.12,0,0,0-2.4,2.93,7.47,7.47,0,0,0-.84,3.44v.11a8.08,8.08,0,0,0,.64,3.31,6.45,6.45,0,0,0,2.17,2.57,16,16,0,0,0,4,2,44.09,44.09,0,0,0,6.25,1.65,44.18,44.18,0,0,1,6.63,1.82,16.66,16.66,0,0,1,4.34,2.31,7.66,7.66,0,0,1,2.35,3,9.58,9.58,0,0,1,.69,3.73V260a9.7,9.7,0,0,1-.95,4.23,10,10,0,0,1-2.75,3.41,13.82,13.82,0,0,1-4.37,2.29A18.87,18.87,0,0,1,680.94,270.75Z" transform="translate(-12 -12.29)"/><path d="M772.23,229.66h1.27v40.51h-1.27Z" transform="translate(-12 -12.29)"/><path d="M797.52,229.66h1.1l30.74,38.43V229.66h1.27v40.51h-1.1L798.8,231.74v38.43h-1.28Z" transform="translate(-12 -12.29)"/><path d="M854.25,229.66h1.21l17.66,25.12,17.66-25.12h1.15v40.51h-1.27V231.8l-17.54,25h-.06l-17.54-25v38.37h-1.27Z" transform="translate(-12 -12.29)"/><path d="M933.9,270.87a19.36,19.36,0,0,1-14.68-6.31,20.57,20.57,0,0,1-4.05-6.66,22.4,22.4,0,0,1-1.42-7.92v-.12a22.42,22.42,0,0,1,1.42-7.93,20.57,20.57,0,0,1,4.05-6.66,20,20,0,0,1,29.35,0,20.57,20.57,0,0,1,4,6.66,22.2,22.2,0,0,1,1.42,7.93V250a22.18,22.18,0,0,1-1.42,7.92,20.57,20.57,0,0,1-4,6.66,19.47,19.47,0,0,1-6.37,4.6A19.72,19.72,0,0,1,933.9,270.87Zm.06-1.16a18,18,0,0,0,7.69-1.62,18.63,18.63,0,0,0,9.79-10.56,21.46,21.46,0,0,0,1.33-7.5v-.11a21,21,0,0,0-1.36-7.47,19.61,19.61,0,0,0-3.85-6.31,19.1,19.1,0,0,0-6-4.37,19.09,19.09,0,0,0-15.46,0,19,19,0,0,0-5.93,4.31,18.69,18.69,0,0,0-3.82,6.28A21.31,21.31,0,0,0,915,249.8v.12a20.89,20.89,0,0,0,1.36,7.47,19.36,19.36,0,0,0,3.84,6.3,18.88,18.88,0,0,0,6,4.37A17.86,17.86,0,0,0,934,269.71Z" transform="translate(-12 -12.29)"/><path d="M975.86,229.66h16.62q7.17,0,10.65,3.47a9.12,9.12,0,0,1,2.6,6.71V240a9.15,9.15,0,0,1-2.17,6.25,10.42,10.42,0,0,1-5.64,3.3,13.06,13.06,0,0,1,3.9,1.16,11.58,11.58,0,0,1,3.16,2.17,9.92,9.92,0,0,1,2.11,3,8.87,8.87,0,0,1,.78,3.73v.12a9,9,0,0,1-3.79,7.76q-3.8,2.71-10.68,2.71H975.86ZM993.4,249.1a16.17,16.17,0,0,0,4.25-.54,10.83,10.83,0,0,0,3.54-1.68,8,8,0,0,0,2.4-2.84,8.76,8.76,0,0,0,.87-4v-.12a8,8,0,0,0-3.16-6.63q-3.15-2.46-8.88-2.46H977.14V249.1Zm0,19.92q6.32,0,9.75-2.44a7.86,7.86,0,0,0,3.45-6.82v-.12a8,8,0,0,0-1-4,9,9,0,0,0-2.63-2.92,11.7,11.7,0,0,0-3.87-1.8,18.17,18.17,0,0,0-4.72-.61H977.14V269Z" transform="translate(-12 -12.29)"/><path d="M1029.81,229.66h1.27v40.51h-1.27Z" transform="translate(-12 -12.29)"/><path d="M1055.11,229.66h1.27V269h24.89v1.15h-26.16Z" transform="translate(-12 -12.29)"/><path d="M1100.89,229.66h1.27v40.51h-1.27Z" transform="translate(-12 -12.29)"/><path d="M1141.81,229.37h1.1l19.51,40.8H1161L1155.24,258h-25.81l-5.79,12.15h-1.33Zm12.85,27.49L1142.34,231,1130,256.86Z" transform="translate(-12 -12.29)"/><path d="M1182.16,229.66h16.55q7.82,0,11.64,3.82a10.16,10.16,0,0,1,2.89,7.52v.12a10.13,10.13,0,0,1-1,4.57,10.31,10.31,0,0,1-2.71,3.47,13.09,13.09,0,0,1-4.17,2.29,19.85,19.85,0,0,1-5.39,1l13.49,17.71h-1.56l-13.43-17.65h-15v17.65h-1.27Zm15.91,21.7a21.17,21.17,0,0,0,6.14-.78,12.62,12.62,0,0,0,4.34-2.17,8.75,8.75,0,0,0,2.58-3.24,9.55,9.55,0,0,0,.84-4v-.12a9,9,0,0,0-3.53-7.56q-3.54-2.69-9.84-2.69h-15.17v20.55Z" transform="translate(-12 -12.29)"/><path d="M1236.05,229.66h1.27v40.51h-1.27Z" transform="translate(-12 -12.29)"/><path d="M1279.69,270.87a19.36,19.36,0,0,1-14.67-6.31,20.4,20.4,0,0,1-4-6.66,22.18,22.18,0,0,1-1.42-7.92v-.12a22.2,22.2,0,0,1,1.42-7.93,20.4,20.4,0,0,1,4-6.66,20,20,0,0,1,29.35,0,20.75,20.75,0,0,1,4.05,6.66,22.19,22.19,0,0,1,1.41,7.93V250a22.17,22.17,0,0,1-1.41,7.92,20.75,20.75,0,0,1-4.05,6.66,19.47,19.47,0,0,1-6.37,4.6A19.73,19.73,0,0,1,1279.69,270.87Zm.06-1.16a18,18,0,0,0,7.7-1.62,18.65,18.65,0,0,0,9.78-10.56,21.23,21.23,0,0,0,1.33-7.5v-.11a20.81,20.81,0,0,0-1.36-7.47,19.61,19.61,0,0,0-3.85-6.31,19,19,0,0,0-6-4.37,19.07,19.07,0,0,0-15.45,0,19.06,19.06,0,0,0-5.94,4.31,18.83,18.83,0,0,0-3.81,6.28,21.32,21.32,0,0,0-1.34,7.47v.12a21.11,21.11,0,0,0,1.36,7.47,19.56,19.56,0,0,0,3.85,6.3,18.77,18.77,0,0,0,6,4.37A17.84,17.84,0,0,0,1279.75,269.71Z" transform="translate(-12 -12.29)"/><path d="M1335.09,270.75a22.43,22.43,0,0,1-8.72-1.67,24.19,24.19,0,0,1-7.32-4.81l.93-.93a23,23,0,0,0,6.94,4.64,21,21,0,0,0,8.28,1.62,17.28,17.28,0,0,0,5.15-.72,12.47,12.47,0,0,0,3.94-2,8.84,8.84,0,0,0,2.49-3,8.47,8.47,0,0,0,.87-3.79v-.12a8.41,8.41,0,0,0-.64-3.33,6.68,6.68,0,0,0-2.14-2.63,14.46,14.46,0,0,0-4.08-2.06,55.32,55.32,0,0,0-6.4-1.71,44.37,44.37,0,0,1-6.4-1.7,16,16,0,0,1-4.28-2.23,7.84,7.84,0,0,1-2.4-2.92,9.14,9.14,0,0,1-.75-3.8v-.11a8.54,8.54,0,0,1,1-4,10.36,10.36,0,0,1,2.75-3.29,13.41,13.41,0,0,1,4.17-2.23,16.45,16.45,0,0,1,5.29-.81,22.19,22.19,0,0,1,7.5,1.24,22.45,22.45,0,0,1,6.28,3.39l-.81,1a24.44,24.44,0,0,0-6-3.27,19.86,19.86,0,0,0-7.06-1.24,14.66,14.66,0,0,0-4.83.75,12.39,12.39,0,0,0-3.74,2,9.12,9.12,0,0,0-2.4,2.93,7.47,7.47,0,0,0-.84,3.44v.11a8.08,8.08,0,0,0,.64,3.31,6.37,6.37,0,0,0,2.17,2.57,16,16,0,0,0,4,2,44.09,44.09,0,0,0,6.25,1.65,43.84,43.84,0,0,1,6.63,1.82,16.5,16.5,0,0,1,4.34,2.31,7.54,7.54,0,0,1,2.34,3,9.4,9.4,0,0,1,.7,3.73V260a9.57,9.57,0,0,1-1,4.23,9.85,9.85,0,0,1-2.74,3.41,13.82,13.82,0,0,1-4.37,2.29A18.85,18.85,0,0,1,1335.09,270.75Z" transform="translate(-12 -12.29)"/><path class="cls-2" d="M1538.23,151.91l-6.79-6.62s-8.33-50,44.94-85.29,92.16-20.4,106.31-1.2,7.45-1,7.45-1l-13.92-15.36-24.54-15.24-10.08-4-8.13-3-11.24-2.49s-46.78-11-92.14,27-40.24,83.89-37.64,91.38S1527,156.44,1527,156.44Z" transform="translate(-12 -12.29)"/><path class="cls-3" d="M1580.78,19.27s90.68,5.87,99.32,59.63-59.64,86.15-87.6,96.23A257.28,257.28,0,0,1,1541.39,188s18.35,15,27.59,20.16,12.84,6.12,12.84,6.12,63-10.91,110-53.39,25.34-99.13,5.23-120.29C1663,4.66,1600.31,15.72,1580.78,19.27Z" transform="translate(-12 -12.29)"/><path class="cls-2" d="M1626.68,269s-5.88,0-20.16-7.68a57.67,57.67,0,0,1-21-19.08s-20.77-76.91-13.33-115.31,24.66-44.57,24.66-44.57,9.66-2.35,15.54.53,8.64,5.64,9.24,9.48-13.2,47.89-13.2,47.89S1605.38,208.21,1626.68,269Z" transform="translate(-12 -12.29)"/><path class="cls-3" d="M1596.85,82.36s12.47-2.64,14.88,9.36-29.52,42-68.4,51.35-50.88-7-50.88-7,14.64,28.08,47.28,32.64,85.67-16.8,102-40.8S1622.53,72.28,1596.85,82.36Z" transform="translate(-12 -12.29)"/></svg>