<svg id="Capa_1" data-name="Capa 1" xmlns="http://www.w3.org/2000/svg" viewBox="0 0 1721 254.14"><defs><style>.cls-1{fill:#333;}.cls-2{fill:#42b2c1;}.cls-2,.cls-3{fill-rule:evenodd;}.cls-3{fill:#2f5daf;}</style></defs><path d="M907.7,74.59h59.18c26.88,0,48.14,19.17,48.14,45.22,0,24-19.17,45.22-47.93,45.22H923.33v55.43H907.7Zm15.63,13.55v63.35h39.59c24.8,0,36.47-13.13,36.47-31.68,0-20.21-13.55-31.67-36.47-31.67Z" transform="translate(-49 -25.86)"/><path d="M1064,220.46h-15.63V74.59H1064Z" transform="translate(-49 -25.86)"/><path d="M1202.36,206.92v13.54h-94.61V74.59h15.63V206.92Z" transform="translate(-49 -25.86)"/><path d="M1328.23,206.92v13.54h-94.61V74.59h15.63V206.92Z" transform="translate(-49 -25.86)"/><path d="M1359.07,189.41C1363.45,193,1382.2,209,1414.5,209c25.63,0,41-11.67,41-29.38,0-41.26-105.23-15.63-105.23-69.6,0-20.22,16.88-37.51,55.85-37.51,31,0,48.13,10.42,56.68,16.46l-7.71,11.46c-6.26-4.58-21.26-14.38-49-14.38-31.68,0-40.43,11.46-40.43,23.34.21,39.59,105.65,13.34,105.65,70.23,0,25-22.3,42.92-56.68,42.92-40.43,0-59.39-17.71-64.39-21.88Z" transform="translate(-49 -25.86)"/><path class="cls-1" d="M121.66,223.77q-17.28,0-30.75-6.11a68.64,68.64,0,0,1-22.85-16.43,69.7,69.7,0,0,1-14.22-24.11A87.31,87.31,0,0,1,49,148v-.42a82.27,82.27,0,0,1,5-28.53A74.18,74.18,0,0,1,68.58,94.67a72.33,72.33,0,0,1,23-17,69.49,69.49,0,0,1,30.33-6.43,86.38,86.38,0,0,1,15.37,1.27,68.35,68.35,0,0,1,13.06,3.69A72.21,72.21,0,0,1,162,82.14,93.91,93.91,0,0,1,173,90.25l-2.95,3.58a94.56,94.56,0,0,0-21.48-13.37q-11.16-5-27-5a63.33,63.33,0,0,0-28.12,6.11A68.11,68.11,0,0,0,72.16,97.73a72.67,72.67,0,0,0-13.68,23,75.46,75.46,0,0,0-4.85,26.64v.42a81.21,81.21,0,0,0,4.63,27.38,69.12,69.12,0,0,0,13.38,22.95A63.1,63.1,0,0,0,93,213.77q12.64,5.79,28.86,5.79a70.7,70.7,0,0,0,15.68-1.69,80.37,80.37,0,0,0,14.12-4.53A87.69,87.69,0,0,0,164,206.92a83.51,83.51,0,0,0,10.31-7.58V152H120v-4.63h59V201a98.36,98.36,0,0,1-25,16.12A76.51,76.51,0,0,1,121.66,223.77Z" transform="translate(-49 -25.86)"/><path class="cls-1" d="M219.59,73.82h60.23q28.43,0,42.33,13.9,10.53,10.53,10.53,27.38v.42a36.82,36.82,0,0,1-13.48,29.27A47.57,47.57,0,0,1,304,153.11a72.82,72.82,0,0,1-19.59,3.69l49.07,64.44h-5.69L279,157H224.22v64.23h-4.63Zm57.91,79A78.23,78.23,0,0,0,299.82,150a46.36,46.36,0,0,0,15.8-7.9,31.84,31.84,0,0,0,9.37-11.8,34.85,34.85,0,0,0,3.06-14.53v-.42q0-17.69-12.85-27.49T279.4,78H224.22V152.8Z" transform="translate(-49 -25.86)"/><path class="cls-1" d="M429.35,223.56a66.65,66.65,0,0,1-24.22-4.22,49.91,49.91,0,0,1-18.85-12.63,57.32,57.32,0,0,1-12.22-21.06Q369.74,173,369.75,156V73.82h4.63V156q0,15.79,4,27.69a54.26,54.26,0,0,0,11.27,19.8,46.44,46.44,0,0,0,17.47,11.9,61,61,0,0,0,22.44,4,62.15,62.15,0,0,0,22.53-3.89,44.76,44.76,0,0,0,17.27-11.79,54,54,0,0,0,11.05-19.8q3.9-11.9,3.9-27.69V73.82H489V156q0,16.85-4.32,29.58a58.18,58.18,0,0,1-12.11,21.17,49,49,0,0,1-18.85,12.63A67.54,67.54,0,0,1,429.35,223.56Z" transform="translate(-49 -25.86)"/><path class="cls-1" d="M530.22,73.82H582q27.16,0,41.91,11.69t14.74,32.54v.42q0,21.48-15.37,33.17t-42.12,11.69H534.85v57.91h-4.63Zm51,85.3q24.63,0,38.74-10.33t14.12-30.11v-.42q0-19-13.8-29.59T581.61,78H534.85v81.08Z" transform="translate(-49 -25.86)"/><path class="cls-1" d="M737.87,223.77a71.61,71.61,0,0,1-30.32-6.21,70.79,70.79,0,0,1-23.07-16.75,74.46,74.46,0,0,1-14.73-24.22,80.86,80.86,0,0,1-5.17-28.85v-.42a80.9,80.9,0,0,1,5.17-28.85,74.67,74.67,0,0,1,14.73-24.22,70.42,70.42,0,0,1,53.39-23,71.91,71.91,0,0,1,30.23,6.22,70.65,70.65,0,0,1,23.16,16.74A74.86,74.86,0,0,1,806,118.47a81.11,81.11,0,0,1,5.16,28.85v.42A81.07,81.07,0,0,1,806,176.59a74.65,74.65,0,0,1-14.74,24.22,70.54,70.54,0,0,1-23.16,16.75A71.9,71.9,0,0,1,737.87,223.77Zm.21-4.21a65.51,65.51,0,0,0,28-5.9,67.91,67.91,0,0,0,35.59-38.43A77.47,77.47,0,0,0,806.53,148v-.42a76,76,0,0,0-4.95-27.16,70.93,70.93,0,0,0-14-23,69.24,69.24,0,0,0-21.8-15.9,69.35,69.35,0,0,0-56.23-.11A69.4,69.4,0,0,0,688,97.09a68.23,68.23,0,0,0-13.9,22.85,77.53,77.53,0,0,0-4.84,27.17v.42a76,76,0,0,0,4.95,27.17,70.75,70.75,0,0,0,14,23,69.17,69.17,0,0,0,21.8,15.9A65.12,65.12,0,0,0,738.08,219.56Z" transform="translate(-49 -25.86)"/><path class="cls-1" d="M721.53,161.54l-4.3,29.31,21.68-8.95,21,8.95-4.3-30.24a27.56,27.56,0,0,1-34.06.93Z" transform="translate(-49 -25.86)"/><path class="cls-1" d="M765.6,135a27.67,27.67,0,1,0-10,21.28A27.65,27.65,0,0,0,765.6,135Z" transform="translate(-49 -25.86)"/><path class="cls-2" d="M1588.23,162.91l-6.79-6.62s-8.33-50,44.94-85.29,92.16-20.4,106.31-1.2,7.45-1,7.45-1l-13.92-15.36-24.54-15.24-10.08-4-8.13-3-11.24-2.49s-46.78-11-92.14,27-40.24,83.89-37.64,91.38S1577,167.44,1577,167.44Z" transform="translate(-49 -25.86)"/><path class="cls-3" d="M1630.78,30.27s90.68,5.87,99.32,59.63-59.64,86.15-87.6,96.23A257.28,257.28,0,0,1,1591.39,199s18.35,15,27.59,20.16,12.84,6.12,12.84,6.12,63-10.91,110-53.39,25.34-99.13,5.23-120.29C1713,15.66,1650.31,26.72,1630.78,30.27Z" transform="translate(-49 -25.86)"/><path class="cls-2" d="M1676.68,280s-5.88,0-20.16-7.68a57.67,57.67,0,0,1-21-19.08s-20.77-76.91-13.33-115.31,24.66-44.57,24.66-44.57,9.66-2.35,15.54.53,8.64,5.64,9.24,9.48-13.2,47.89-13.2,47.89S1655.38,219.21,1676.68,280Z" transform="translate(-49 -25.86)"/><path class="cls-3" d="M1646.85,93.36s12.47-2.64,14.88,9.36-29.52,42-68.4,51.35-50.88-7-50.88-7,14.64,28.08,47.28,32.64,85.67-16.8,102-40.8S1672.53,83.28,1646.85,93.36Z" transform="translate(-49 -25.86)"/></svg>