<svg id="Capa_1" data-name="Capa 1" xmlns="http://www.w3.org/2000/svg" viewBox="0 0 907.79 631.95"><defs><style>.cls-1{fill:#333;}.cls-2{fill:#42b2c1;}.cls-2,.cls-3{fill-rule:evenodd;}.cls-3{fill:#2f5daf;}</style></defs><path class="cls-1" d="M47,565.16a47.05,47.05,0,0,1-19.63-3.9,43.9,43.9,0,0,1-14.58-10.49,44.69,44.69,0,0,1-9.08-15.39A55.73,55.73,0,0,1,.6,516.77v-.27a52.54,52.54,0,0,1,3.22-18.21,47.3,47.3,0,0,1,9.27-15.53,46.37,46.37,0,0,1,14.66-10.82,44.43,44.43,0,0,1,19.35-4.1,54.82,54.82,0,0,1,9.81.81A44.05,44.05,0,0,1,65.25,471a46.49,46.49,0,0,1,7.45,3.77,59,59,0,0,1,7.06,5.17l-1.88,2.29a60.36,60.36,0,0,0-13.71-8.54Q57,470.53,47,470.53A40.39,40.39,0,0,0,29,474.43a43.4,43.4,0,0,0-13.64,10.28,46.57,46.57,0,0,0-8.74,14.65,48.2,48.2,0,0,0-3.09,17v.26a51.92,51.92,0,0,0,3,17.48A44.21,44.21,0,0,0,15,548.76a40.35,40.35,0,0,0,13.65,10,43.61,43.61,0,0,0,18.41,3.7,45.23,45.23,0,0,0,10-1.08,51.29,51.29,0,0,0,9-2.89A56,56,0,0,0,74,554.4a54.16,54.16,0,0,0,6.59-4.83V519.32H45.89v-3H83.53v34.27A63.17,63.17,0,0,1,67.6,560.92,48.88,48.88,0,0,1,47,565.16Z" transform="translate(-0.6 -0.93)"/><path class="cls-1" d="M109.47,469.46h38.44q18.14,0,27,8.87,6.72,6.72,6.72,17.47v.27a23.47,23.47,0,0,1-8.6,18.68,30.46,30.46,0,0,1-9.68,5.31,46.57,46.57,0,0,1-12.49,2.35l31.31,41.13h-3.63l-31.18-41H112.42v41h-3Zm37,50.4a49.91,49.91,0,0,0,14.25-1.81,29.59,29.59,0,0,0,10.08-5,20.34,20.34,0,0,0,6-7.53,22.21,22.21,0,0,0,1.95-9.28v-.26q0-11.29-8.2-17.55t-22.85-6.24H112.42v47.71Z" transform="translate(-0.6 -0.93)"/><path class="cls-1" d="M243.34,565a42.57,42.57,0,0,1-15.46-2.69,32,32,0,0,1-12-8.06,36.73,36.73,0,0,1-7.8-13.44,58.89,58.89,0,0,1-2.75-19V469.46h3v52.42a55.52,55.52,0,0,0,2.55,17.67A34.73,34.73,0,0,0,218,552.19a29.56,29.56,0,0,0,11.16,7.59,39,39,0,0,0,14.31,2.55,39.63,39.63,0,0,0,14.38-2.48,28.48,28.48,0,0,0,11-7.53,34.49,34.49,0,0,0,7.06-12.63A56.86,56.86,0,0,0,278.42,522V469.46h3v52.42a58.72,58.72,0,0,1-2.76,18.88,37.17,37.17,0,0,1-7.73,13.51,31.26,31.26,0,0,1-12,8.06A43.09,43.09,0,0,1,243.34,565Z" transform="translate(-0.6 -0.93)"/><path class="cls-1" d="M307.72,469.46h33.06q17.34,0,26.75,7.46t9.41,20.76V498q0,13.71-9.81,21.17t-26.88,7.46H310.67v37h-2.95Zm32.53,54.43q15.72,0,24.73-6.58t9-19.22v-.27q0-12.1-8.8-18.89t-24.67-6.78H310.67v51.74Z" transform="translate(-0.6 -0.93)"/><path class="cls-1" d="M440.25,565.16a45.77,45.77,0,0,1-19.36-4,45.3,45.3,0,0,1-14.72-10.68,47.65,47.65,0,0,1-9.4-15.46,51.7,51.7,0,0,1-3.3-18.42v-.26a51.7,51.7,0,0,1,3.3-18.42,47.75,47.75,0,0,1,9.4-15.46,45.3,45.3,0,0,1,14.72-10.68,49,49,0,0,1,38.64,0,45.07,45.07,0,0,1,14.79,10.68A48,48,0,0,1,483.73,498,51.91,51.91,0,0,1,487,516.37v.26a51.91,51.91,0,0,1-3.29,18.42,47.85,47.85,0,0,1-9.41,15.46,45.07,45.07,0,0,1-14.79,10.68A45.88,45.88,0,0,1,440.25,565.16Zm.13-2.69a41.77,41.77,0,0,0,17.88-3.77A43.33,43.33,0,0,0,481,534.18a49.37,49.37,0,0,0,3.09-17.41v-.27a48.46,48.46,0,0,0-3.16-17.34A45.18,45.18,0,0,0,472,484.51a44.3,44.3,0,0,0-13.91-10.15,44.27,44.27,0,0,0-35.89-.06,43.33,43.33,0,0,0-22.65,24.59,49.51,49.51,0,0,0-3.09,17.34v.27a48.46,48.46,0,0,0,3.16,17.34,45.07,45.07,0,0,0,8.93,14.65,44.23,44.23,0,0,0,13.92,10.15A41.61,41.61,0,0,0,440.38,562.47Z" transform="translate(-0.6 -0.93)"/><path d="M81.16,606.57h8.31a15.15,15.15,0,0,1,5.56,1,13.41,13.41,0,0,1,4.36,2.74,12.19,12.19,0,0,1,2.82,4.08,12.79,12.79,0,0,1,1,5.08v.08a12.71,12.71,0,0,1-1,5.07,12.13,12.13,0,0,1-2.82,4.09A13.39,13.39,0,0,1,95,631.43a14.94,14.94,0,0,1-5.56,1H81.16Zm8.34,25.12a14.27,14.27,0,0,0,5.23-.94,12.22,12.22,0,0,0,4.08-2.59,11.56,11.56,0,0,0,2.64-3.84,11.92,11.92,0,0,0,1-4.75v-.07a12.05,12.05,0,0,0-1-4.77,11.65,11.65,0,0,0-2.65-3.88,12.48,12.48,0,0,0-4.1-2.6,14.2,14.2,0,0,0-5.27-.94H82v24.38Z" transform="translate(-0.6 -0.93)"/><path d="M117.14,606.57H135.2v.74H118v11.75h15.66v.73H118v11.9h17.44v.74H117.14Z" transform="translate(-0.6 -0.93)"/><path d="M157.51,632.8a14.33,14.33,0,0,1-5.55-1.07,15.48,15.48,0,0,1-4.68-3.07l.59-.59a14.53,14.53,0,0,0,4.44,2.95,13.34,13.34,0,0,0,5.28,1,11.32,11.32,0,0,0,3.29-.46,7.91,7.91,0,0,0,2.51-1.28,5.58,5.58,0,0,0,1.59-1.94,5.4,5.4,0,0,0,.55-2.42v-.07a5.19,5.19,0,0,0-.41-2.13,4.35,4.35,0,0,0-1.36-1.68,9.31,9.31,0,0,0-2.61-1.31,35,35,0,0,0-4.08-1.09,28.06,28.06,0,0,1-4.08-1.09,10.21,10.21,0,0,1-2.73-1.42,4.93,4.93,0,0,1-1.54-1.87,5.74,5.74,0,0,1-.48-2.42v-.07a5.46,5.46,0,0,1,.63-2.57,6.5,6.5,0,0,1,1.76-2.1,8.36,8.36,0,0,1,2.66-1.43,10.59,10.59,0,0,1,3.37-.51,14.2,14.2,0,0,1,4.79.79,14.45,14.45,0,0,1,4,2.16l-.52.67a15.82,15.82,0,0,0-3.84-2.09,12.7,12.7,0,0,0-4.51-.79,9.35,9.35,0,0,0-3.08.48,7.8,7.8,0,0,0-2.39,1.29,5.79,5.79,0,0,0-1.53,1.87,4.73,4.73,0,0,0-.54,2.19v.08a5.14,5.14,0,0,0,.41,2.1,4.11,4.11,0,0,0,1.38,1.65,10.41,10.41,0,0,0,2.57,1.29,28.62,28.62,0,0,0,4,1.05,29.07,29.07,0,0,1,4.22,1.17,10.33,10.33,0,0,1,2.77,1.47,4.73,4.73,0,0,1,1.5,1.89,6,6,0,0,1,.44,2.38v.08a6,6,0,0,1-.61,2.69A6.21,6.21,0,0,1,164,630.8a8.58,8.58,0,0,1-2.79,1.46A11.76,11.76,0,0,1,157.51,632.8Z" transform="translate(-0.6 -0.93)"/><path d="M190,606.38h.7l12.44,26h-.88l-3.69-7.76H182.12l-3.7,7.76h-.85Zm8.2,17.55-7.87-16.48-7.87,16.48Z" transform="translate(-0.6 -0.93)"/><path d="M215.77,606.57h10.57c3.32,0,5.8.81,7.42,2.44a6.5,6.5,0,0,1,1.85,4.8v.07a6.56,6.56,0,0,1-.63,2.92,6.68,6.68,0,0,1-1.73,2.22,8.61,8.61,0,0,1-2.66,1.46,13,13,0,0,1-3.44.64l8.61,11.31h-1l-8.57-11.27h-9.6v11.27h-.82Zm10.16,13.85a13.48,13.48,0,0,0,3.92-.5,8.17,8.17,0,0,0,2.77-1.38,5.67,5.67,0,0,0,1.64-2.07,6.08,6.08,0,0,0,.54-2.55v-.07a5.74,5.74,0,0,0-2.25-4.83,10.22,10.22,0,0,0-6.29-1.71h-9.67v13.11Z" transform="translate(-0.6 -0.93)"/><path d="M249.91,606.57h10.56c3.33,0,5.8.81,7.43,2.44a6.5,6.5,0,0,1,1.85,4.8v.07a6.56,6.56,0,0,1-.63,2.92,6.71,6.71,0,0,1-1.74,2.22,8.61,8.61,0,0,1-2.66,1.46,12.9,12.9,0,0,1-3.43.64l8.6,11.31h-1l-8.57-11.27h-9.61v11.27h-.81Zm10.16,13.85a13.41,13.41,0,0,0,3.91-.5,8,8,0,0,0,2.77-1.38,5.7,5.7,0,0,0,1.65-2.07,6.23,6.23,0,0,0,.53-2.55v-.07a5.74,5.74,0,0,0-2.25-4.83,10.19,10.19,0,0,0-6.28-1.71h-9.68v13.11Z" transform="translate(-0.6 -0.93)"/><path d="M295.75,632.87a12.35,12.35,0,0,1-9.36-4,13,13,0,0,1-2.59-4.24,14.34,14.34,0,0,1-.9-5.06v-.08a14.3,14.3,0,0,1,.9-5.06,13.09,13.09,0,0,1,2.59-4.25,12.35,12.35,0,0,1,9.36-4,12.73,12.73,0,0,1,5.31,1.09,12.54,12.54,0,0,1,4.06,2.94,13.06,13.06,0,0,1,2.58,4.25,14.09,14.09,0,0,1,.91,5.06v.08a14.13,14.13,0,0,1-.91,5.06,13,13,0,0,1-2.58,4.24,12.39,12.39,0,0,1-4.06,2.94A12.58,12.58,0,0,1,295.75,632.87Zm0-.74a11.45,11.45,0,0,0,4.91-1,11.87,11.87,0,0,0,6.25-6.75,13.63,13.63,0,0,0,.85-4.78v-.07a13.35,13.35,0,0,0-.87-4.77,12.4,12.4,0,0,0-2.46-4,12,12,0,0,0-3.82-2.79,11.3,11.3,0,0,0-4.93-1.06,11.47,11.47,0,0,0-4.94,1,12.11,12.11,0,0,0-3.78,2.75,11.94,11.94,0,0,0-2.44,4,13.49,13.49,0,0,0-.85,4.76v.08a13.25,13.25,0,0,0,.87,4.76,12.6,12.6,0,0,0,2.45,4,12.09,12.09,0,0,0,3.83,2.79A11.44,11.44,0,0,0,295.79,632.13Z" transform="translate(-0.6 -0.93)"/><path d="M322.54,606.57h.81v25.12h15.88v.74H322.54Z" transform="translate(-0.6 -0.93)"/><path d="M351.5,606.57h.81v25.12H368.2v.74H351.5Z" transform="translate(-0.6 -0.93)"/><path d="M392.17,632.87a12.35,12.35,0,0,1-9.36-4,13,13,0,0,1-2.59-4.24,14.34,14.34,0,0,1-.9-5.06v-.08a14.3,14.3,0,0,1,.9-5.06,13.09,13.09,0,0,1,2.59-4.25,12.35,12.35,0,0,1,9.36-4,12.76,12.76,0,0,1,5.31,1.09,12.54,12.54,0,0,1,4.06,2.94,13.06,13.06,0,0,1,2.58,4.25,14.09,14.09,0,0,1,.91,5.06v.08a14.13,14.13,0,0,1-.91,5.06,13,13,0,0,1-2.58,4.24,12.39,12.39,0,0,1-4.06,2.94A12.61,12.61,0,0,1,392.17,632.87Zm0-.74a11.45,11.45,0,0,0,4.91-1,11.87,11.87,0,0,0,6.25-6.75,13.63,13.63,0,0,0,.85-4.78v-.07a13.35,13.35,0,0,0-.87-4.77,12.4,12.4,0,0,0-2.46-4,12,12,0,0,0-3.82-2.79,11.3,11.3,0,0,0-4.93-1.06,11.47,11.47,0,0,0-4.94,1,12.11,12.11,0,0,0-3.78,2.75,11.94,11.94,0,0,0-2.44,4,13.49,13.49,0,0,0-.85,4.76v.08a13.25,13.25,0,0,0,.87,4.76,12.6,12.6,0,0,0,2.45,4,12.09,12.09,0,0,0,3.83,2.79A11.44,11.44,0,0,0,392.21,632.13Z" transform="translate(-0.6 -0.93)"/><path d="M427.53,632.8a14.38,14.38,0,0,1-5.56-1.07,15.44,15.44,0,0,1-4.67-3.07l.59-.59a14.61,14.61,0,0,0,4.43,2.95,13.37,13.37,0,0,0,5.28,1,11.22,11.22,0,0,0,3.29-.46,7.81,7.81,0,0,0,2.51-1.28,5.58,5.58,0,0,0,1.59-1.94,5.41,5.41,0,0,0,.56-2.42v-.07a5.36,5.36,0,0,0-.41-2.13,4.38,4.38,0,0,0-1.37-1.68,9.38,9.38,0,0,0-2.6-1.31,35.83,35.83,0,0,0-4.09-1.09,28.06,28.06,0,0,1-4.08-1.09,10.21,10.21,0,0,1-2.73-1.42,5.12,5.12,0,0,1-1.54-1.87,5.74,5.74,0,0,1-.47-2.42v-.07a5.57,5.57,0,0,1,.62-2.57,6.63,6.63,0,0,1,1.76-2.1,8.58,8.58,0,0,1,2.66-1.43,10.65,10.65,0,0,1,3.38-.51,14.14,14.14,0,0,1,4.78.79,14.45,14.45,0,0,1,4,2.16l-.52.67a15.64,15.64,0,0,0-3.84-2.09,12.62,12.62,0,0,0-4.51-.79,9.39,9.39,0,0,0-3.08.48,7.75,7.75,0,0,0-2.38,1.29,5.54,5.54,0,0,0-1.53,1.87,4.73,4.73,0,0,0-.54,2.19v.08a5,5,0,0,0,.41,2.1,4,4,0,0,0,1.38,1.65,10.07,10.07,0,0,0,2.57,1.29,28.82,28.82,0,0,0,4,1.05,29.6,29.6,0,0,1,4.23,1.17,10.65,10.65,0,0,1,2.77,1.47,4.91,4.91,0,0,1,1.5,1.89,6.16,6.16,0,0,1,.44,2.38v.08a6,6,0,0,1-.61,2.69A6.24,6.24,0,0,1,434,630.8a8.58,8.58,0,0,1-2.79,1.46A11.7,11.7,0,0,1,427.53,632.8Z" transform="translate(-0.6 -0.93)"/><path d="M485.79,606.57h.81v25.86h-.81Z" transform="translate(-0.6 -0.93)"/><path d="M501.93,606.57h.7l19.62,24.53V606.57h.81v25.86h-.7L502.74,607.9v24.53h-.81Z" transform="translate(-0.6 -0.93)"/><path d="M538.13,606.57h.78l11.27,16,11.27-16h.73v25.86h-.81v-24.5l-11.19,16h0l-11.19-16v24.5h-.82Z" transform="translate(-0.6 -0.93)"/><path d="M589,632.87a12.35,12.35,0,0,1-9.37-4A13.22,13.22,0,0,1,577,624.6a14.34,14.34,0,0,1-.9-5.06v-.08a14.3,14.3,0,0,1,.9-5.06,13.26,13.26,0,0,1,2.59-4.25,12.35,12.35,0,0,1,9.37-4,12.72,12.72,0,0,1,5.3,1.09,12.43,12.43,0,0,1,4.06,2.94,13.26,13.26,0,0,1,2.59,4.25,14.3,14.3,0,0,1,.9,5.06v.08a14.34,14.34,0,0,1-.9,5.06,13.22,13.22,0,0,1-2.59,4.24,12.29,12.29,0,0,1-4.06,2.94A12.56,12.56,0,0,1,589,632.87Zm0-.74a11.5,11.5,0,0,0,4.92-1,12.24,12.24,0,0,0,3.8-2.75,12.09,12.09,0,0,0,2.44-4,13.63,13.63,0,0,0,.85-4.78v-.07a13.35,13.35,0,0,0-.87-4.77,12.4,12.4,0,0,0-2.46-4,11.94,11.94,0,0,0-3.82-2.79,11.3,11.3,0,0,0-4.93-1.06,11.42,11.42,0,0,0-4.93,1,11.9,11.9,0,0,0-6.23,6.76,13.72,13.72,0,0,0-.85,4.76v.08a13.25,13.25,0,0,0,.87,4.76,12.45,12.45,0,0,0,2.46,4,11.94,11.94,0,0,0,3.82,2.79A11.44,11.44,0,0,0,589,632.13Z" transform="translate(-0.6 -0.93)"/><path d="M615.75,606.57h10.6c3.06,0,5.32.74,6.8,2.21a5.8,5.8,0,0,1,1.66,4.29v.07a5.87,5.87,0,0,1-1.38,4,6.65,6.65,0,0,1-3.61,2.11,8.41,8.41,0,0,1,2.5.74,7.46,7.46,0,0,1,2,1.38,6.42,6.42,0,0,1,1.35,1.92,5.71,5.71,0,0,1,.5,2.39v.07a5.74,5.74,0,0,1-2.42,5,11.54,11.54,0,0,1-6.82,1.74H615.75ZM626.94,619a10.34,10.34,0,0,0,2.72-.35,6.69,6.69,0,0,0,2.25-1.07,5.17,5.17,0,0,0,1.54-1.81,5.73,5.73,0,0,0,.55-2.57v-.07a5.08,5.08,0,0,0-2-4.23,9,9,0,0,0-5.68-1.57h-9.75V619Zm0,12.71a10.74,10.74,0,0,0,6.23-1.55,5.05,5.05,0,0,0,2.2-4.36v-.08a5.14,5.14,0,0,0-.63-2.58,5.89,5.89,0,0,0-1.68-1.87,7.54,7.54,0,0,0-2.48-1.14,11.34,11.34,0,0,0-3-.39h-11v12Z" transform="translate(-0.6 -0.93)"/><path d="M650.18,606.57H651v25.86h-.81Z" transform="translate(-0.6 -0.93)"/><path d="M666.32,606.57h.82v25.12H683v.74h-16.7Z" transform="translate(-0.6 -0.93)"/><path d="M695.54,606.57h.82v25.86h-.82Z" transform="translate(-0.6 -0.93)"/><path d="M721.66,606.38h.71l12.44,26h-.88l-3.7-7.76H713.76l-3.7,7.76h-.85Zm8.2,17.55L722,607.45l-7.87,16.48Z" transform="translate(-0.6 -0.93)"/><path d="M747.41,606.57H758q5,0,7.42,2.44a6.5,6.5,0,0,1,1.85,4.8v.07a6.56,6.56,0,0,1-.63,2.92,6.81,6.81,0,0,1-1.73,2.22,8.55,8.55,0,0,1-2.67,1.46,12.83,12.83,0,0,1-3.43.64l8.61,11.31h-1l-8.57-11.27h-9.61v11.27h-.81Zm10.16,13.85a13.48,13.48,0,0,0,3.92-.5,8,8,0,0,0,2.76-1.38,5.59,5.59,0,0,0,1.65-2.07,6.07,6.07,0,0,0,.53-2.55v-.07a5.71,5.71,0,0,0-2.25-4.83,10.19,10.19,0,0,0-6.28-1.71h-9.68v13.11Z" transform="translate(-0.6 -0.93)"/><path d="M781.8,606.57h.82v25.86h-.82Z" transform="translate(-0.6 -0.93)"/><path d="M809.66,632.87a12.35,12.35,0,0,1-9.37-4,13,13,0,0,1-2.58-4.24,14.35,14.35,0,0,1-.91-5.06v-.08a14.31,14.31,0,0,1,.91-5.06,13.06,13.06,0,0,1,2.58-4.25,12.78,12.78,0,0,1,18.74,0,13.24,13.24,0,0,1,2.58,4.25,14.3,14.3,0,0,1,.9,5.06v.08a14.34,14.34,0,0,1-.9,5.06,13.19,13.19,0,0,1-2.58,4.24,12.43,12.43,0,0,1-4.07,2.94A12.56,12.56,0,0,1,809.66,632.87Zm0-.74a11.49,11.49,0,0,0,4.91-1,12.28,12.28,0,0,0,3.81-2.75,12.07,12.07,0,0,0,2.43-4,13.4,13.4,0,0,0,.85-4.78v-.07a13.56,13.56,0,0,0-.86-4.77,12.57,12.57,0,0,0-2.46-4,12.09,12.09,0,0,0-3.83-2.79,11.3,11.3,0,0,0-4.93-1.06,11.45,11.45,0,0,0-4.93,1,12,12,0,0,0-3.79,2.75,11.91,11.91,0,0,0-2.43,4,13.49,13.49,0,0,0-.85,4.76v.08a13.46,13.46,0,0,0,.86,4.76,12.45,12.45,0,0,0,2.46,4,12,12,0,0,0,3.83,2.79A11.41,11.41,0,0,0,809.7,632.13Z" transform="translate(-0.6 -0.93)"/><path d="M845,632.8a14.38,14.38,0,0,1-5.56-1.07,15.44,15.44,0,0,1-4.67-3.07l.59-.59A14.61,14.61,0,0,0,839.8,631a13.42,13.42,0,0,0,5.29,1,11.2,11.2,0,0,0,3.28-.46,7.86,7.86,0,0,0,2.52-1.28A5.51,5.51,0,0,0,853,626v-.07a5.36,5.36,0,0,0-.41-2.13,4.35,4.35,0,0,0-1.36-1.68,9.45,9.45,0,0,0-2.61-1.31,36.18,36.18,0,0,0-4.08-1.09,28.06,28.06,0,0,1-4.08-1.09,10.28,10.28,0,0,1-2.74-1.42,5,5,0,0,1-1.53-1.87,5.74,5.74,0,0,1-.48-2.42v-.07a5.46,5.46,0,0,1,.63-2.57,6.6,6.6,0,0,1,1.75-2.1,8.58,8.58,0,0,1,2.66-1.43,10.7,10.7,0,0,1,3.38-.51A14.2,14.2,0,0,1,849,607a14.39,14.39,0,0,1,4,2.16l-.51.67a15.82,15.82,0,0,0-3.84-2.09,12.7,12.7,0,0,0-4.51-.79,9.41,9.41,0,0,0-3.09.48,7.87,7.87,0,0,0-2.38,1.29,5.79,5.79,0,0,0-1.53,1.87,4.73,4.73,0,0,0-.54,2.19v.08A5.14,5.14,0,0,0,837,615a4.11,4.11,0,0,0,1.38,1.65,10.24,10.24,0,0,0,2.57,1.29,28.82,28.82,0,0,0,4,1.05,28.88,28.88,0,0,1,4.23,1.17,10.33,10.33,0,0,1,2.77,1.47,4.91,4.91,0,0,1,1.5,1.89,6.16,6.16,0,0,1,.44,2.38v.08a6,6,0,0,1-.61,2.69,6.21,6.21,0,0,1-1.75,2.18,8.79,8.79,0,0,1-2.79,1.46A11.76,11.76,0,0,1,845,632.8Z" transform="translate(-0.6 -0.93)"/><path class="cls-2" d="M355.92,228.54l-11.29-11S330.8,134.48,419.28,75.9,572.33,42,595.84,73.9s12.36-1.59,12.36-1.59L585.09,46.8,544.34,21.49l-16.75-6.67-13.5-4.93L495.42,5.77s-77.69-18.2-153,44.78-66.83,139.31-62.52,151.76,57.32,33.76,57.32,33.76Z" transform="translate(-0.6 -0.93)"/><path class="cls-3" d="M426.58,8.26s150.61,9.75,165,99-99,143.08-145.49,159.82-84.9,21.33-84.9,21.33,30.49,24.91,45.83,33.48,21.33,10.17,21.33,10.17S532.92,314,611,243.42,653.11,78.8,619.71,43.64C563-16,459,2.36,426.58,8.26Z" transform="translate(-0.6 -0.93)"/><path class="cls-2" d="M502.82,423s-9.77,0-33.49-12.76-34.87-31.68-34.87-31.68S400,250.83,412.32,187.06s40.94-74,40.94-74,16.05-3.89,25.82.89,14.35,9.37,15.34,15.74-21.92,79.53-21.92,79.53S467.44,322,502.82,423Z" transform="translate(-0.6 -0.93)"/><path class="cls-3" d="M453.26,113S474,108.65,478,128.57s-49,69.75-113.6,85.29-84.5-11.55-84.5-11.55S304.2,249,358.4,256.52s142.29-27.9,169.39-67.76S495.91,96.29,453.26,113Z" transform="translate(-0.6 -0.93)"/><path class="cls-1" d="M432.37,527.35l-2.74,18.71,13.83-5.71,13.39,5.71-2.74-19.3a17.6,17.6,0,0,1-21.74.59Z" transform="translate(-0.6 -0.93)"/><path class="cls-1" d="M460.49,510.43A17.64,17.64,0,1,0,454.11,524,17.64,17.64,0,0,0,460.49,510.43Z" transform="translate(-0.6 -0.93)"/><path d="M548.63,470H586.4c17.16,0,30.72,12.23,30.72,28.86,0,15.29-12.23,28.86-30.58,28.86H558.61V563h-10Zm10,8.64V519h25.27c15.82,0,23.27-8.38,23.27-20.21,0-12.9-8.64-20.22-23.27-20.22Z" transform="translate(-0.6 -0.93)"/><path d="M648.38,563h-10V470h10Z" transform="translate(-0.6 -0.93)"/><path d="M736.69,554.4V563H676.31V470h10V554.4Z" transform="translate(-0.6 -0.93)"/><path d="M817,554.4V563H756.64V470h10V554.4Z" transform="translate(-0.6 -0.93)"/><path d="M836.71,543.23c2.79,2.26,14.76,12.5,35.37,12.5,16.36,0,26.2-7.45,26.2-18.75,0-26.34-67.16-10-67.16-44.42,0-12.9,10.77-23.94,35.64-23.94,19.82,0,30.72,6.65,36.18,10.5L898,486.44c-4-2.93-13.57-9.18-31.26-9.18-20.21,0-25.8,7.32-25.8,14.9.13,25.27,67.43,8.51,67.43,44.82,0,16-14.23,27.39-36.18,27.39-25.8,0-37.9-11.3-41.09-14Z" transform="translate(-0.6 -0.93)"/></svg>