<svg id="Capa_1" data-name="Capa 1" xmlns="http://www.w3.org/2000/svg" viewBox="0 0 1710.55 254.14"><defs><style>.cls-1{fill:#333;}.cls-2{fill:#42b2c1;}.cls-2,.cls-3{fill-rule:evenodd;}.cls-3{fill:#2f5daf;}</style></defs><path d="M1197.7,55.59h59.18c26.88,0,48.14,19.17,48.14,45.22,0,24-19.17,45.22-47.93,45.22h-43.76v55.43H1197.7Zm15.63,13.55v63.35h39.59c24.8,0,36.47-13.13,36.47-31.68,0-20.21-13.55-31.67-36.47-31.67Z" transform="translate(-50.84 -6.86)"/><path d="M1354,201.46h-15.63V55.59H1354Z" transform="translate(-50.84 -6.86)"/><path d="M1492.36,187.92v13.54h-94.61V55.59h15.63V187.92Z" transform="translate(-50.84 -6.86)"/><path d="M1618.23,187.92v13.54h-94.61V55.59h15.63V187.92Z" transform="translate(-50.84 -6.86)"/><path d="M1649.07,170.41C1653.45,174,1672.2,190,1704.5,190c25.63,0,41-11.67,41-29.38,0-41.26-105.23-15.63-105.23-69.6,0-20.22,16.88-37.51,55.85-37.51,31,0,48.13,10.42,56.68,16.46l-7.71,11.46c-6.26-4.58-21.26-14.38-49-14.38-31.68,0-40.43,11.46-40.43,23.34.21,39.59,105.65,13.34,105.65,70.23,0,25-22.3,42.92-56.68,42.92-40.43,0-59.39-17.71-64.39-21.88Z" transform="translate(-50.84 -6.86)"/><path class="cls-1" d="M411.66,204.77q-17.28,0-30.75-6.11a68.64,68.64,0,0,1-22.85-16.43,69.7,69.7,0,0,1-14.22-24.11A87.31,87.31,0,0,1,339,129v-.42A82.27,82.27,0,0,1,344.05,100a74.18,74.18,0,0,1,14.53-24.33,72.33,72.33,0,0,1,23-17,69.49,69.49,0,0,1,30.33-6.43,86.38,86.38,0,0,1,15.37,1.27,68.35,68.35,0,0,1,13.06,3.69A72.21,72.21,0,0,1,452,63.14,93.91,93.91,0,0,1,463,71.25l-3,3.58a94.56,94.56,0,0,0-21.48-13.37q-11.16-5-26.95-5a63.33,63.33,0,0,0-28.12,6.11,68.11,68.11,0,0,0-21.38,16.12,72.67,72.67,0,0,0-13.68,23,75.46,75.46,0,0,0-4.85,26.64v.42a81.21,81.21,0,0,0,4.63,27.38,69.12,69.12,0,0,0,13.38,22.95A63.1,63.1,0,0,0,383,194.77q12.64,5.79,28.86,5.79a70.7,70.7,0,0,0,15.68-1.69,80.37,80.37,0,0,0,14.12-4.53A87.69,87.69,0,0,0,454,187.92a83.51,83.51,0,0,0,10.31-7.58V133H410v-4.63h59V182a98.36,98.36,0,0,1-25,16.12A76.51,76.51,0,0,1,411.66,204.77Z" transform="translate(-50.84 -6.86)"/><path class="cls-1" d="M509.59,54.82h60.23q28.42,0,42.33,13.9,10.53,10.53,10.53,27.38v.42a36.82,36.82,0,0,1-13.48,29.27A47.57,47.57,0,0,1,594,134.11a72.82,72.82,0,0,1-19.59,3.69l49.07,64.44h-5.69L569,138H514.22v64.23h-4.63Zm57.91,79A78.23,78.23,0,0,0,589.82,131a46.36,46.36,0,0,0,15.8-7.9,31.84,31.84,0,0,0,9.37-11.8,34.85,34.85,0,0,0,3.06-14.53v-.42q0-17.69-12.85-27.49T569.4,59H514.22V133.8Z" transform="translate(-50.84 -6.86)"/><path class="cls-1" d="M719.35,204.56a66.65,66.65,0,0,1-24.22-4.22,49.91,49.91,0,0,1-18.85-12.63,57.32,57.32,0,0,1-12.22-21.06Q659.74,154,659.75,137V54.82h4.63V137q0,15.79,4,27.69a54.26,54.26,0,0,0,11.27,19.8,46.44,46.44,0,0,0,17.47,11.9,61,61,0,0,0,22.44,4,62.15,62.15,0,0,0,22.53-3.89,44.76,44.76,0,0,0,17.27-11.79,54,54,0,0,0,11-19.8q3.9-11.9,3.9-27.69V54.82H779V137q0,16.85-4.32,29.58a58.18,58.18,0,0,1-12.11,21.17,49,49,0,0,1-18.85,12.63A67.54,67.54,0,0,1,719.35,204.56Z" transform="translate(-50.84 -6.86)"/><path class="cls-1" d="M820.22,54.82H872q27.16,0,41.91,11.69t14.74,32.54v.42q0,21.48-15.37,33.17t-42.12,11.69H824.85v57.91h-4.63Zm51,85.3q24.63,0,38.74-10.33t14.12-30.11v-.42q0-19-13.8-29.59T871.61,59H824.85v81.08Z" transform="translate(-50.84 -6.86)"/><path class="cls-1" d="M1027.87,204.77a71.61,71.61,0,0,1-30.32-6.21,70.79,70.79,0,0,1-23.07-16.75,74.46,74.46,0,0,1-14.73-24.22,80.86,80.86,0,0,1-5.17-28.85v-.42a80.9,80.9,0,0,1,5.17-28.85,74.67,74.67,0,0,1,14.73-24.22,70.42,70.42,0,0,1,53.39-23,71.91,71.91,0,0,1,30.23,6.22,70.65,70.65,0,0,1,23.16,16.74A74.86,74.86,0,0,1,1096,99.47a81.11,81.11,0,0,1,5.16,28.85v.42a81.07,81.07,0,0,1-5.16,28.85,74.65,74.65,0,0,1-14.74,24.22,70.54,70.54,0,0,1-23.16,16.75A71.9,71.9,0,0,1,1027.87,204.77Zm.21-4.21a65.51,65.51,0,0,0,28-5.9,67.91,67.91,0,0,0,35.59-38.43,77.47,77.47,0,0,0,4.84-27.28v-.42a76,76,0,0,0-5-27.16,70.93,70.93,0,0,0-14-23,69.24,69.24,0,0,0-21.8-15.9,69.35,69.35,0,0,0-56.23-.11A69.4,69.4,0,0,0,978,78.09a68.23,68.23,0,0,0-13.9,22.85,77.53,77.53,0,0,0-4.84,27.17v.42a76,76,0,0,0,4.95,27.17,70.75,70.75,0,0,0,14,23,69.17,69.17,0,0,0,21.8,15.9A65.12,65.12,0,0,0,1028.08,200.56Z" transform="translate(-50.84 -6.86)"/><path class="cls-1" d="M1011.53,142.54l-4.3,29.31,21.68-8.95,21,8.95-4.3-30.24a27.56,27.56,0,0,1-34.06.93Z" transform="translate(-50.84 -6.86)"/><path class="cls-1" d="M1055.6,116a27.67,27.67,0,1,0-10,21.28A27.65,27.65,0,0,0,1055.6,116Z" transform="translate(-50.84 -6.86)"/><path class="cls-2" d="M98.23,143.91l-6.79-6.62s-8.33-50,44.94-85.29,92.16-20.4,106.31-1.2,7.45-1,7.45-1L236.22,34.48,211.68,19.24l-10.08-4-8.13-3L182.23,9.77s-46.78-11-92.14,27-40.24,83.89-37.64,91.38S87,148.44,87,148.44Z" transform="translate(-50.84 -6.86)"/><path class="cls-3" d="M140.78,11.27s90.68,5.87,99.32,59.63-59.64,86.15-87.6,96.23A257.28,257.28,0,0,1,101.39,180s18.35,15,27.59,20.16,12.84,6.12,12.84,6.12,63-10.91,110-53.39,25.34-99.13,5.23-120.29C223-3.34,160.31,7.72,140.78,11.27Z" transform="translate(-50.84 -6.86)"/><path class="cls-2" d="M186.68,261s-5.88,0-20.16-7.68a57.67,57.67,0,0,1-21-19.08s-20.77-76.91-13.33-115.31,24.66-44.57,24.66-44.57,9.66-2.35,15.54.53,8.64,5.64,9.24,9.48-13.2,47.89-13.2,47.89S165.38,200.21,186.68,261Z" transform="translate(-50.84 -6.86)"/><path class="cls-3" d="M156.85,74.36s12.47-2.64,14.88,9.36-29.52,42-68.4,51.35-50.88-7-50.88-7,14.64,28.08,47.28,32.64,85.67-16.8,102-40.8S182.53,64.28,156.85,74.36Z" transform="translate(-50.84 -6.86)"/></svg>